<svg id="Layer_1" data-name="Layer 1" xmlns="http://www.w3.org/2000/svg" viewBox="0 0 2432.18 463.35"><defs><style>.cls-1{fill:#fff;}</style></defs><title>Artboard 1</title><path class="cls-1" d="M339.31,181.52l-30.46,95.15h61.34l-21,65.51H169.45c-8.87-5-19.45-26.68,7.39-109,26.93-82.61,82.43-104.45,113.36-110.14a175.45,175.45,0,0,1,22.55-1.42v-.5h252L603.39.37H312.25V.74C297.58.38,233.42.41,176.54,25.25,111.37,53.71,58.16,129.06,18.4,249.2,5.28,288.86-34.66,409.53,70.74,452.1c28.24,11.4,49.19,11.25,68,11.25l316.4,0,90.22-281.8Z"/><path class="cls-1" d="M1194.51,0H651.89L503.68,463H648.43L758.7,118.53h86.22a24,24,0,0,1,22.84,31.3L767.51,463H912.26l110.27-344.42h89.55a24,24,0,0,1,22.84,31.3L1034.67,463h74.91a95.69,95.69,0,0,0,91.13-66.51L1287,126.79C1307.12,64.09,1260.34,0,1194.51,0"/><path class="cls-1" d="M2335.54,0H1959.89L1811.67,463h144.75l110-343.69h185.61a24,24,0,0,1,22.84,31.3L2174.88,463h74.91a95.69,95.69,0,0,0,91.13-66.51L2427.51,126c20-62.32-26.54-126-92-126"/><path class="cls-1" d="M1774.48,221.41s80.27-30.37,80.27-136.67C1854.75,5.55,1750.34,0,1750.34,0l-.89.45.16-.45H1377.83L1229.61,463H1626.5q1.78,0,3.54-.14c19.79-1.63,180.24-19.78,180.24-179.58,0-43.39-35.8-61.83-35.8-61.83m-100.08-116c6.86.08,30.66,1.2,30.66,13.12,0,13.93-11.93,69.25-77,69.25H1462.46l26.37-82.37Zm-89.52,252.14H1408.11l29-90.58H1628s35.8,0,35.8,21.69-25.81,68.89-79,68.89"/></svg>